<?xml version="1.0" encoding="iso-8859-1"?>
<!-- Uploaded to: SVG Repo, www.svgrepo.com, Generator: SVG Repo Mixer Tools -->
<svg fill="#000000" height="800px" width="800px" version="1.1" id="Layer_1" xmlns="http://www.w3.org/2000/svg" xmlns:xlink="http://www.w3.org/1999/xlink" 
	 viewBox="0 0 406.02 406.02" xml:space="preserve">
<g>
	<g>
		<g>
			<path d="M398,279.176H8c-4.418,0-8,3.582-8,8v90c0,4.418,3.582,8,8,8h390c4.418,0,8-3.582,8-8v-90
				C406,282.758,402.418,279.176,398,279.176z M390,369.176h-21.5v-37c0-4.418-3.582-8-8-8c-4.418,0-8,3.582-8,8v37h-19v-24.833
				c0-4.418-3.582-8-8-8c-4.418,0-8,3.582-8,8v24.833h-19v-37c0-4.418-3.582-8-8-8c-4.418,0-8,3.582-8,8v37h-19v-24.833
				c0-4.418-3.582-8-8-8c-4.418,0-8,3.582-8,8v24.833h-19v-37c0-4.418-3.582-8-8-8c-4.418,0-8,3.582-8,8v37h-19v-24.833
				c0-4.418-3.582-8-8-8c-4.418,0-8,3.582-8,8v24.833h-19v-37c0-4.418-3.582-8-8-8c-4.418,0-8,3.582-8,8v37h-19v-24.833
				c0-4.418-3.582-8-8-8c-4.418,0-8,3.582-8,8v24.833h-19v-37c0-4.418-3.582-8-8-8c-4.418,0-8,3.582-8,8v37h-19v-24.833
				c0-4.418-3.582-8-8-8c-4.418,0-8,3.582-8,8v24.833H16v-74h374V369.176z"/>
			<path d="M8,232.843h390c0.01,0,0.014,0,0.02,0c4.419,0,8-3.582,8-8c0-2.373-1.033-4.505-2.675-5.971L208.671,23.201
				c-1.501-1.509-3.542-2.357-5.671-2.357c-2.129,0-4.17,0.849-5.671,2.357l-195,196c-2.28,2.291-2.957,5.729-1.716,8.714
				C1.854,230.899,4.768,232.843,8,232.843z M203,40.186l175.756,176.657H316v-7.726c0-4.418-3.582-8-8-8c-4.418,0-8,3.582-8,8
				v7.726h-19v-18c0-4.418-3.582-8-8-8c-4.418,0-8,3.582-8,8v18h-19v-7.726c0-4.418-3.582-8-8-8c-4.418,0-8,3.582-8,8v7.726h-19v-18
				c0-4.418-3.582-8-8-8c-4.418,0-8,3.582-8,8v18h-19v-7.726c0-4.418-3.582-8-8-8c-4.418,0-8,3.582-8,8v7.726h-19v-18
				c0-4.418-3.582-8-8-8c-4.418,0-8,3.582-8,8v18h-19v-7.726c0-4.418-3.582-8-8-8c-4.418,0-8,3.582-8,8v7.726H27.244L203,40.186z"/>
			<path d="M140.303,177.843h125.395c0.006,0,0.012,0,0.02,0c4.419,0,8-3.582,8-8c0-2.374-1.033-4.506-2.675-5.971l-62.371-62.69
				c-1.501-1.509-3.542-2.357-5.671-2.357c-2.129,0-4.17,0.849-5.671,2.357l-62.697,63.019c-2.28,2.291-2.957,5.729-1.716,8.714
				C134.157,175.899,137.071,177.843,140.303,177.843z M203,118.168l43.453,43.676h-86.906L203,118.168z"/>
		</g>
	</g>
</g>
</svg>